<svg xmlns="http://www.w3.org/2000/svg" xmlns:xlink="http://www.w3.org/1999/xlink" width="2000" zoomAndPan="magnify" viewBox="0 0 1500 1499.999933" height="2000" preserveAspectRatio="xMidYMid meet" version="1.0"><defs><g/><clipPath id="c0a7d2fbc9"><path d="M 330.457031 532 L 1169.460938 532 L 1169.460938 996.820312 L 330.457031 996.820312 Z M 330.457031 532 " clip-rule="nonzero"/></clipPath><clipPath id="6bffd21f68"><path d="M 428.292969 853.53125 L 631.769531 853.53125 L 631.769531 1149.609375 L 428.292969 1149.609375 Z M 428.292969 853.53125 " clip-rule="nonzero"/></clipPath><clipPath id="758bae2d69"><path d="M 590.890625 853.53125 L 739.25 853.53125 L 739.25 1149.609375 L 590.890625 1149.609375 Z M 590.890625 853.53125 " clip-rule="nonzero"/></clipPath><clipPath id="3a7a2e77c1"><path d="M 760.375 853.53125 L 909 853.53125 L 909 1149.609375 L 760.375 1149.609375 Z M 760.375 853.53125 " clip-rule="nonzero"/></clipPath><clipPath id="1aa2533c8a"><path d="M 868 853.53125 L 1071.332031 853.53125 L 1071.332031 1149.609375 L 868 1149.609375 Z M 868 853.53125 " clip-rule="nonzero"/></clipPath><clipPath id="ebdae5fc17"><path d="M 548 350.109375 L 952 350.109375 L 952 577 L 548 577 Z M 548 350.109375 " clip-rule="nonzero"/></clipPath></defs><g clip-path="url(#c0a7d2fbc9)"><path fill="#231f20" d="M 364.664062 576.335938 L 428.988281 576.335938 L 428.988281 540.578125 C 428.988281 535.878906 432.832031 532.035156 437.535156 532.035156 L 473.222656 532.035156 C 477.925781 532.035156 481.773438 535.878906 481.773438 540.578125 L 481.773438 576.335938 L 514.554688 576.335938 L 514.554688 614.558594 L 985.363281 614.558594 L 985.363281 576.335938 L 1018.144531 576.335938 L 1018.144531 540.578125 C 1018.144531 535.878906 1021.988281 532.035156 1026.691406 532.035156 L 1062.386719 532.035156 C 1067.085938 532.035156 1070.929688 535.878906 1070.929688 540.578125 L 1070.929688 576.335938 L 1135.257812 576.335938 C 1154.070312 576.335938 1169.460938 591.722656 1169.460938 610.53125 L 1169.460938 962.585938 C 1169.460938 981.398438 1154.070312 996.785156 1135.257812 996.785156 L 1040.480469 996.785156 L 973.507812 841.253906 L 965.109375 821.753906 L 534.804688 821.753906 L 526.410156 841.253906 L 459.4375 996.785156 L 364.664062 996.785156 C 345.851562 996.785156 330.457031 981.398438 330.457031 962.585938 L 330.457031 610.53125 C 330.457031 591.722656 345.851562 576.335938 364.664062 576.335938 " fill-opacity="1" fill-rule="evenodd"/></g><g clip-path="url(#6bffd21f68)"><path fill="#0068a6" d="M 569.09375 1149.679688 L 428.636719 1149.679688 L 555.972656 853.957031 L 631.605469 853.957031 L 569.09375 1149.679688 " fill-opacity="1" fill-rule="evenodd"/></g><g clip-path="url(#758bae2d69)"><path fill="#ec008c" d="M 739.222656 1149.679688 L 590.984375 1149.679688 L 653.492188 853.957031 L 739.222656 853.957031 L 739.222656 1149.679688 " fill-opacity="1" fill-rule="evenodd"/></g><g clip-path="url(#3a7a2e77c1)"><path fill="#e9a600" d="M 908.933594 1149.679688 L 760.695312 1149.679688 L 760.695312 853.957031 L 846.417969 853.957031 L 908.933594 1149.679688 " fill-opacity="1" fill-rule="evenodd"/></g><g clip-path="url(#1aa2533c8a)"><path fill="#231f20" d="M 943.945312 853.957031 L 1071.277344 1149.679688 L 930.820312 1149.679688 L 868.3125 853.957031 L 943.945312 853.957031 " fill-opacity="1" fill-rule="evenodd"/></g><g clip-path="url(#ebdae5fc17)"><path fill="#231f20" d="M 548.796875 576.976562 L 951.121094 576.976562 L 951.121094 274.410156 L 548.796875 274.410156 L 548.796875 576.976562 " fill-opacity="1" fill-rule="evenodd"/></g><g fill="#0068a6" fill-opacity="1"><g transform="translate(646.722626, 777.793977)"><g><path d="M 61.9375 -119.9375 C 70.519531 -119.9375 77.859375 -118.363281 83.953125 -115.21875 C 90.054688 -112.070312 94.664062 -107.664062 97.78125 -102 C 100.894531 -96.34375 102.453125 -89.769531 102.453125 -82.28125 C 102.453125 -74.789062 100.894531 -68.226562 97.78125 -62.59375 C 94.664062 -56.957031 90.054688 -52.566406 83.953125 -49.421875 C 77.859375 -46.273438 70.519531 -44.703125 61.9375 -44.703125 L 39.296875 -44.703125 L 39.296875 0 L 15.59375 0 L 15.59375 -119.9375 Z M 58.8125 -63.5 C 72 -63.5 78.59375 -69.757812 78.59375 -82.28125 C 78.59375 -94.851562 72 -101.140625 58.8125 -101.140625 L 39.296875 -101.140625 L 39.296875 -63.5 Z M 58.8125 -63.5 "/></g></g></g><g fill="#e9a600" fill-opacity="1"><g transform="translate(756.316366, 777.793977)"><g><path d="M 91.625 -119.9375 L 91.625 -100.078125 L 39.296875 -100.078125 L 39.296875 -68.328125 L 86.796875 -68.328125 L 86.796875 -48.734375 L 39.296875 -48.734375 L 39.296875 0 L 15.59375 0 L 15.59375 -119.9375 Z M 91.625 -119.9375 "/></g></g></g></svg>